<mxfile host="app.diagrams.net" modified="2024-01-24T14:53:18.093Z" agent="Mozilla/5.0 (Windows NT 10.0; Win64; x64) AppleWebKit/537.36 (KHTML, like Gecko) Chrome/120.0.0.0 Safari/537.36" etag="Uez0DAkiAvMMoIgCDkrL" version="23.0.0" type="device">
  <diagram name="Page-1" id="b520641d-4fe3-3701-9064-5fc419738815">
    <mxGraphModel dx="1647" dy="439" grid="1" gridSize="10" guides="1" tooltips="1" connect="1" arrows="1" fold="1" page="0" pageScale="1" pageWidth="1100" pageHeight="850" background="none" math="0" shadow="0">
      <root>
        <mxCell id="0" />
        <mxCell id="1" parent="0" />
        <mxCell id="lDSgatOu9usaqV24lOmU-1" value="USER" style="swimlane;fontStyle=0;childLayout=stackLayout;horizontal=1;startSize=26;fillColor=none;horizontalStack=0;resizeParent=1;resizeParentMax=0;resizeLast=0;collapsible=1;marginBottom=0;whiteSpace=wrap;html=1;" parent="1" vertex="1">
          <mxGeometry x="155" y="731" width="60" height="78" as="geometry" />
        </mxCell>
        <mxCell id="lDSgatOu9usaqV24lOmU-2" value="• email" style="text;strokeColor=none;fillColor=none;align=left;verticalAlign=top;spacingLeft=4;spacingRight=4;overflow=hidden;rotatable=0;points=[[0,0.5],[1,0.5]];portConstraint=eastwest;whiteSpace=wrap;html=1;fontSize=10;" parent="lDSgatOu9usaqV24lOmU-1" vertex="1">
          <mxGeometry y="26" width="60" height="26" as="geometry" />
        </mxCell>
        <mxCell id="lDSgatOu9usaqV24lOmU-6" value="" style="endArrow=none;html=1;rounded=0;" parent="lDSgatOu9usaqV24lOmU-1" edge="1">
          <mxGeometry width="50" height="50" relative="1" as="geometry">
            <mxPoint x="12" y="44" as="sourcePoint" />
            <mxPoint x="36" y="44" as="targetPoint" />
          </mxGeometry>
        </mxCell>
        <mxCell id="lDSgatOu9usaqV24lOmU-3" value="• password" style="text;strokeColor=none;fillColor=none;align=left;verticalAlign=top;spacingLeft=4;spacingRight=4;overflow=hidden;rotatable=0;points=[[0,0.5],[1,0.5]];portConstraint=eastwest;whiteSpace=wrap;html=1;fontSize=10;" parent="lDSgatOu9usaqV24lOmU-1" vertex="1">
          <mxGeometry y="52" width="60" height="26" as="geometry" />
        </mxCell>
        <mxCell id="lDSgatOu9usaqV24lOmU-76" value="" style="triangle;whiteSpace=wrap;html=1;direction=south;" parent="1" vertex="1">
          <mxGeometry x="150" y="660" width="40" height="20" as="geometry" />
        </mxCell>
        <mxCell id="lDSgatOu9usaqV24lOmU-77" value="" style="endArrow=none;html=1;rounded=0;exitX=1;exitY=0.5;exitDx=0;exitDy=0;edgeStyle=orthogonalEdgeStyle;entryX=0.25;entryY=0;entryDx=0;entryDy=0;" parent="1" source="lDSgatOu9usaqV24lOmU-76" target="lDSgatOu9usaqV24lOmU-1" edge="1">
          <mxGeometry width="50" height="50" relative="1" as="geometry">
            <mxPoint x="215" y="590" as="sourcePoint" />
            <mxPoint x="130" y="810" as="targetPoint" />
          </mxGeometry>
        </mxCell>
        <mxCell id="lDSgatOu9usaqV24lOmU-78" value="" style="endArrow=none;html=1;rounded=0;edgeStyle=orthogonalEdgeStyle;entryX=0;entryY=0.25;entryDx=0;entryDy=0;exitX=0.889;exitY=1.002;exitDx=0;exitDy=0;exitPerimeter=0;" parent="1" source="lDSgatOu9usaqV24lOmU-69" target="lDSgatOu9usaqV24lOmU-76" edge="1">
          <mxGeometry width="50" height="50" relative="1" as="geometry">
            <mxPoint x="189.5" y="740" as="sourcePoint" />
            <mxPoint x="87" y="651" as="targetPoint" />
            <Array as="points" />
          </mxGeometry>
        </mxCell>
        <mxCell id="lDSgatOu9usaqV24lOmU-79" value="" style="endArrow=none;html=1;rounded=0;edgeStyle=orthogonalEdgeStyle;entryX=0;entryY=0.5;entryDx=0;entryDy=0;exitX=0.778;exitY=1.002;exitDx=0;exitDy=0;exitPerimeter=0;" parent="1" source="lDSgatOu9usaqV24lOmU-69" target="lDSgatOu9usaqV24lOmU-76" edge="1">
          <mxGeometry width="50" height="50" relative="1" as="geometry">
            <mxPoint x="170" y="730" as="sourcePoint" />
            <mxPoint x="137" y="661" as="targetPoint" />
            <Array as="points" />
          </mxGeometry>
        </mxCell>
        <mxCell id="lDSgatOu9usaqV24lOmU-80" value="" style="endArrow=none;html=1;rounded=0;edgeStyle=orthogonalEdgeStyle;entryX=0;entryY=0.75;entryDx=0;entryDy=0;exitX=0.664;exitY=1.001;exitDx=0;exitDy=0;exitPerimeter=0;" parent="1" source="lDSgatOu9usaqV24lOmU-69" target="lDSgatOu9usaqV24lOmU-76" edge="1">
          <mxGeometry width="50" height="50" relative="1" as="geometry">
            <mxPoint x="129.5" y="741" as="sourcePoint" />
            <mxPoint x="207" y="661" as="targetPoint" />
            <Array as="points">
              <mxPoint x="160" y="660" />
            </Array>
          </mxGeometry>
        </mxCell>
        <mxCell id="lDSgatOu9usaqV24lOmU-81" value="&lt;font style=&quot;font-size: 7px;&quot;&gt;1:1&lt;/font&gt;" style="text;html=1;strokeColor=none;fillColor=none;align=center;verticalAlign=middle;whiteSpace=wrap;rounded=0;" parent="1" vertex="1">
          <mxGeometry x="212" y="729" width="20" height="10" as="geometry" />
        </mxCell>
        <mxCell id="lDSgatOu9usaqV24lOmU-82" value="&lt;font style=&quot;font-size: 7px;&quot;&gt;0:N&lt;/font&gt;" style="text;html=1;strokeColor=none;fillColor=none;align=center;verticalAlign=middle;whiteSpace=wrap;rounded=0;" parent="1" vertex="1">
          <mxGeometry x="140" y="648" width="20" height="10" as="geometry" />
        </mxCell>
        <mxCell id="lDSgatOu9usaqV24lOmU-92" value="" style="group" parent="1" vertex="1" connectable="0">
          <mxGeometry x="335" y="440" width="100" height="130" as="geometry" />
        </mxCell>
        <mxCell id="lDSgatOu9usaqV24lOmU-7" value="ORDER" style="swimlane;fontStyle=0;childLayout=stackLayout;horizontal=1;startSize=26;fillColor=none;horizontalStack=0;resizeParent=1;resizeParentMax=0;resizeLast=0;collapsible=1;marginBottom=0;whiteSpace=wrap;html=1;" parent="lDSgatOu9usaqV24lOmU-92" vertex="1">
          <mxGeometry width="100" height="130" as="geometry" />
        </mxCell>
        <mxCell id="lDSgatOu9usaqV24lOmU-8" value="• order_ID" style="text;strokeColor=none;fillColor=none;align=left;verticalAlign=top;spacingLeft=4;spacingRight=4;overflow=hidden;rotatable=0;points=[[0,0.5],[1,0.5]];portConstraint=eastwest;whiteSpace=wrap;html=1;fontSize=10;" parent="lDSgatOu9usaqV24lOmU-7" vertex="1">
          <mxGeometry y="26" width="100" height="26" as="geometry" />
        </mxCell>
        <mxCell id="lDSgatOu9usaqV24lOmU-10" value="• date" style="text;strokeColor=none;fillColor=none;align=left;verticalAlign=top;spacingLeft=4;spacingRight=4;overflow=hidden;rotatable=0;points=[[0,0.5],[1,0.5]];portConstraint=eastwest;whiteSpace=wrap;html=1;fontSize=10;" parent="lDSgatOu9usaqV24lOmU-7" vertex="1">
          <mxGeometry y="52" width="100" height="26" as="geometry" />
        </mxCell>
        <mxCell id="lDSgatOu9usaqV24lOmU-12" value="• shipping method" style="text;strokeColor=none;fillColor=none;align=left;verticalAlign=top;spacingLeft=4;spacingRight=4;overflow=hidden;rotatable=0;points=[[0,0.5],[1,0.5]];portConstraint=eastwest;whiteSpace=wrap;html=1;fontSize=10;" parent="lDSgatOu9usaqV24lOmU-7" vertex="1">
          <mxGeometry y="78" width="100" height="26" as="geometry" />
        </mxCell>
        <mxCell id="lDSgatOu9usaqV24lOmU-13" value="• payment_type" style="text;strokeColor=none;fillColor=none;align=left;verticalAlign=top;spacingLeft=4;spacingRight=4;overflow=hidden;rotatable=0;points=[[0,0.5],[1,0.5]];portConstraint=eastwest;whiteSpace=wrap;html=1;fontSize=10;" parent="lDSgatOu9usaqV24lOmU-7" vertex="1">
          <mxGeometry y="104" width="100" height="26" as="geometry" />
        </mxCell>
        <mxCell id="lDSgatOu9usaqV24lOmU-83" value="" style="endArrow=none;html=1;rounded=0;" parent="lDSgatOu9usaqV24lOmU-92" edge="1">
          <mxGeometry width="50" height="50" relative="1" as="geometry">
            <mxPoint x="13" y="46" as="sourcePoint" />
            <mxPoint x="55" y="46" as="targetPoint" />
          </mxGeometry>
        </mxCell>
        <mxCell id="lDSgatOu9usaqV24lOmU-103" value="D" style="shape=or;whiteSpace=wrap;html=1;direction=north;" parent="1" vertex="1">
          <mxGeometry x="360" y="590" width="50" height="30" as="geometry" />
        </mxCell>
        <mxCell id="lDSgatOu9usaqV24lOmU-104" value="" style="endArrow=classicThin;html=1;rounded=0;edgeStyle=orthogonalEdgeStyle;exitX=0.993;exitY=0.4;exitDx=0;exitDy=0;exitPerimeter=0;entryX=0.45;entryY=1.021;entryDx=0;entryDy=0;entryPerimeter=0;endFill=1;" parent="1" source="lDSgatOu9usaqV24lOmU-103" target="lDSgatOu9usaqV24lOmU-13" edge="1">
          <mxGeometry width="50" height="50" relative="1" as="geometry">
            <mxPoint x="345" y="750" as="sourcePoint" />
            <mxPoint x="325" y="740" as="targetPoint" />
          </mxGeometry>
        </mxCell>
        <mxCell id="lDSgatOu9usaqV24lOmU-105" value="" style="endArrow=classicThin;html=1;rounded=0;edgeStyle=orthogonalEdgeStyle;exitX=0.996;exitY=0.6;exitDx=0;exitDy=0;exitPerimeter=0;entryX=0.549;entryY=1.017;entryDx=0;entryDy=0;entryPerimeter=0;endFill=1;" parent="1" source="lDSgatOu9usaqV24lOmU-103" target="lDSgatOu9usaqV24lOmU-13" edge="1">
          <mxGeometry width="50" height="50" relative="1" as="geometry">
            <mxPoint x="365" y="760" as="sourcePoint" />
            <mxPoint x="365" y="740" as="targetPoint" />
          </mxGeometry>
        </mxCell>
        <mxCell id="lDSgatOu9usaqV24lOmU-111" value="" style="endArrow=none;html=1;rounded=0;entryX=0;entryY=0.25;entryDx=0;entryDy=0;entryPerimeter=0;edgeStyle=orthogonalEdgeStyle;exitX=0.951;exitY=1.001;exitDx=0;exitDy=0;exitPerimeter=0;" parent="1" source="lDSgatOu9usaqV24lOmU-258" target="lDSgatOu9usaqV24lOmU-103" edge="1">
          <mxGeometry width="50" height="50" relative="1" as="geometry">
            <mxPoint x="320" y="530" as="sourcePoint" />
            <mxPoint x="372.5" y="621.99" as="targetPoint" />
            <Array as="points">
              <mxPoint x="319" y="542" />
              <mxPoint x="320" y="542" />
              <mxPoint x="320" y="632" />
              <mxPoint x="372" y="632" />
            </Array>
          </mxGeometry>
        </mxCell>
        <mxCell id="lDSgatOu9usaqV24lOmU-114" value="&lt;font style=&quot;font-size: 10px;&quot;&gt;Addressed to&lt;/font&gt;" style="rounded=1;whiteSpace=wrap;html=1;arcSize=50;" parent="1" vertex="1">
          <mxGeometry x="220" y="530" width="70" height="10" as="geometry" />
        </mxCell>
        <mxCell id="lDSgatOu9usaqV24lOmU-115" value="" style="endArrow=none;html=1;rounded=0;edgeStyle=orthogonalEdgeStyle;entryX=1;entryY=0.655;entryDx=0;entryDy=0;exitX=0;exitY=0.5;exitDx=0;exitDy=0;entryPerimeter=0;" parent="1" source="lDSgatOu9usaqV24lOmU-114" target="lDSgatOu9usaqV24lOmU-62" edge="1">
          <mxGeometry width="50" height="50" relative="1" as="geometry">
            <mxPoint x="198.5" y="504.53999999999996" as="sourcePoint" />
            <mxPoint x="235.5" y="505.47" as="targetPoint" />
          </mxGeometry>
        </mxCell>
        <mxCell id="lDSgatOu9usaqV24lOmU-116" value="" style="endArrow=none;html=1;rounded=0;edgeStyle=orthogonalEdgeStyle;entryX=0.468;entryY=1.001;entryDx=0;entryDy=0;entryPerimeter=0;exitX=0.591;exitY=-0.009;exitDx=0;exitDy=0;exitPerimeter=0;" parent="1" source="lDSgatOu9usaqV24lOmU-114" target="lDSgatOu9usaqV24lOmU-258" edge="1">
          <mxGeometry width="50" height="50" relative="1" as="geometry">
            <mxPoint x="280" y="520" as="sourcePoint" />
            <mxPoint x="264.99" y="559.99" as="targetPoint" />
            <Array as="points">
              <mxPoint x="261" y="520" />
              <mxPoint x="261" y="520" />
            </Array>
          </mxGeometry>
        </mxCell>
        <mxCell id="lDSgatOu9usaqV24lOmU-117" value="ORDER W/O USER" style="swimlane;fontStyle=0;childLayout=stackLayout;horizontal=1;startSize=26;fillColor=none;horizontalStack=0;resizeParent=1;resizeParentMax=0;resizeLast=0;collapsible=1;marginBottom=0;whiteSpace=wrap;html=1;" parent="1" vertex="1">
          <mxGeometry x="450" y="490" width="135" height="208" as="geometry" />
        </mxCell>
        <mxCell id="lDSgatOu9usaqV24lOmU-118" value="• first_name" style="text;strokeColor=none;fillColor=none;align=left;verticalAlign=top;spacingLeft=4;spacingRight=4;overflow=hidden;rotatable=0;points=[[0,0.5],[1,0.5]];portConstraint=eastwest;whiteSpace=wrap;html=1;fontSize=10;" parent="lDSgatOu9usaqV24lOmU-117" vertex="1">
          <mxGeometry y="26" width="135" height="26" as="geometry" />
        </mxCell>
        <mxCell id="lDSgatOu9usaqV24lOmU-119" value="• last_name" style="text;strokeColor=none;fillColor=none;align=left;verticalAlign=top;spacingLeft=4;spacingRight=4;overflow=hidden;rotatable=0;points=[[0,0.5],[1,0.5]];portConstraint=eastwest;whiteSpace=wrap;html=1;fontSize=10;" parent="lDSgatOu9usaqV24lOmU-117" vertex="1">
          <mxGeometry y="52" width="135" height="26" as="geometry" />
        </mxCell>
        <mxCell id="lDSgatOu9usaqV24lOmU-120" value="• address" style="text;strokeColor=none;fillColor=none;align=left;verticalAlign=top;spacingLeft=4;spacingRight=4;overflow=hidden;rotatable=0;points=[[0,0.5],[1,0.5]];portConstraint=eastwest;whiteSpace=wrap;html=1;fontSize=10;" parent="lDSgatOu9usaqV24lOmU-117" vertex="1">
          <mxGeometry y="78" width="135" height="26" as="geometry" />
        </mxCell>
        <mxCell id="lDSgatOu9usaqV24lOmU-121" value="• city" style="text;strokeColor=none;fillColor=none;align=left;verticalAlign=top;spacingLeft=4;spacingRight=4;overflow=hidden;rotatable=0;points=[[0,0.5],[1,0.5]];portConstraint=eastwest;whiteSpace=wrap;html=1;fontSize=10;" parent="lDSgatOu9usaqV24lOmU-117" vertex="1">
          <mxGeometry y="104" width="135" height="26" as="geometry" />
        </mxCell>
        <mxCell id="lDSgatOu9usaqV24lOmU-122" value="• Zip_code" style="text;strokeColor=none;fillColor=none;align=left;verticalAlign=top;spacingLeft=4;spacingRight=4;overflow=hidden;rotatable=0;points=[[0,0.5],[1,0.5]];portConstraint=eastwest;whiteSpace=wrap;html=1;fontSize=10;" parent="lDSgatOu9usaqV24lOmU-117" vertex="1">
          <mxGeometry y="130" width="135" height="26" as="geometry" />
        </mxCell>
        <mxCell id="lDSgatOu9usaqV24lOmU-125" value="• country/region" style="text;strokeColor=none;fillColor=none;align=left;verticalAlign=top;spacingLeft=4;spacingRight=4;overflow=hidden;rotatable=0;points=[[0,0.5],[1,0.5]];portConstraint=eastwest;whiteSpace=wrap;html=1;fontSize=10;" parent="lDSgatOu9usaqV24lOmU-117" vertex="1">
          <mxGeometry y="156" width="135" height="26" as="geometry" />
        </mxCell>
        <mxCell id="lDSgatOu9usaqV24lOmU-124" value="• phone#" style="text;strokeColor=none;fillColor=none;align=left;verticalAlign=top;spacingLeft=4;spacingRight=4;overflow=hidden;rotatable=0;points=[[0,0.5],[1,0.5]];portConstraint=eastwest;whiteSpace=wrap;html=1;fontSize=10;" parent="lDSgatOu9usaqV24lOmU-117" vertex="1">
          <mxGeometry y="182" width="135" height="26" as="geometry" />
        </mxCell>
        <mxCell id="lDSgatOu9usaqV24lOmU-126" value="" style="endArrow=none;html=1;rounded=0;edgeStyle=orthogonalEdgeStyle;entryX=0;entryY=0.75;entryDx=0;entryDy=0;entryPerimeter=0;exitX=-0.005;exitY=0.376;exitDx=0;exitDy=0;exitPerimeter=0;" parent="1" source="lDSgatOu9usaqV24lOmU-122" target="lDSgatOu9usaqV24lOmU-103" edge="1">
          <mxGeometry width="50" height="50" relative="1" as="geometry">
            <mxPoint x="430" y="640" as="sourcePoint" />
            <mxPoint x="395" y="630" as="targetPoint" />
            <Array as="points">
              <mxPoint x="430" y="630" />
              <mxPoint x="397" y="630" />
            </Array>
          </mxGeometry>
        </mxCell>
        <mxCell id="lDSgatOu9usaqV24lOmU-138" value="" style="group" parent="1" vertex="1" connectable="0">
          <mxGeometry x="100" y="440" width="91" height="286" as="geometry" />
        </mxCell>
        <mxCell id="lDSgatOu9usaqV24lOmU-98" value="" style="group" parent="lDSgatOu9usaqV24lOmU-138" vertex="1" connectable="0">
          <mxGeometry x="1" width="90" height="286" as="geometry" />
        </mxCell>
        <mxCell id="lDSgatOu9usaqV24lOmU-94" value="" style="rounded=0;whiteSpace=wrap;html=1;fillColor=none;" parent="lDSgatOu9usaqV24lOmU-138" vertex="1">
          <mxGeometry x="2" y="28" width="86" height="178" as="geometry" />
        </mxCell>
        <mxCell id="lDSgatOu9usaqV24lOmU-136" value="" style="group" parent="lDSgatOu9usaqV24lOmU-138" vertex="1" connectable="0">
          <mxGeometry width="90" height="286" as="geometry" />
        </mxCell>
        <mxCell id="lDSgatOu9usaqV24lOmU-71" value="" style="endArrow=none;dashed=1;html=1;rounded=0;" parent="lDSgatOu9usaqV24lOmU-136" edge="1">
          <mxGeometry width="50" height="50" relative="1" as="geometry">
            <mxPoint x="13" y="45" as="sourcePoint" />
            <mxPoint x="59" y="45" as="targetPoint" />
          </mxGeometry>
        </mxCell>
        <mxCell id="lDSgatOu9usaqV24lOmU-72" value="" style="endArrow=none;dashed=1;html=1;rounded=0;" parent="lDSgatOu9usaqV24lOmU-136" edge="1">
          <mxGeometry width="50" height="50" relative="1" as="geometry">
            <mxPoint x="13" y="71" as="sourcePoint" />
            <mxPoint x="58" y="71" as="targetPoint" />
          </mxGeometry>
        </mxCell>
        <mxCell id="lDSgatOu9usaqV24lOmU-73" value="" style="endArrow=none;dashed=1;html=1;rounded=0;" parent="lDSgatOu9usaqV24lOmU-136" edge="1">
          <mxGeometry width="50" height="50" relative="1" as="geometry">
            <mxPoint x="13" y="95" as="sourcePoint" />
            <mxPoint x="46" y="95" as="targetPoint" />
          </mxGeometry>
        </mxCell>
        <mxCell id="lDSgatOu9usaqV24lOmU-75" value="" style="group" parent="lDSgatOu9usaqV24lOmU-136" vertex="1" connectable="0">
          <mxGeometry width="90" height="286" as="geometry" />
        </mxCell>
        <mxCell id="lDSgatOu9usaqV24lOmU-59" value="ADDRESS" style="swimlane;fontStyle=0;childLayout=stackLayout;horizontal=1;startSize=26;fillColor=none;horizontalStack=0;resizeParent=1;resizeParentMax=0;resizeLast=0;collapsible=1;marginBottom=0;whiteSpace=wrap;html=1;" parent="lDSgatOu9usaqV24lOmU-75" vertex="1">
          <mxGeometry width="90" height="208" as="geometry" />
        </mxCell>
        <mxCell id="lDSgatOu9usaqV24lOmU-60" value="• first_name" style="text;strokeColor=none;fillColor=none;align=left;verticalAlign=top;spacingLeft=4;spacingRight=4;overflow=hidden;rotatable=0;points=[[0,0.5],[1,0.5]];portConstraint=eastwest;whiteSpace=wrap;html=1;fontSize=10;" parent="lDSgatOu9usaqV24lOmU-59" vertex="1">
          <mxGeometry y="26" width="90" height="26" as="geometry" />
        </mxCell>
        <mxCell id="lDSgatOu9usaqV24lOmU-61" value="• last_name" style="text;strokeColor=none;fillColor=none;align=left;verticalAlign=top;spacingLeft=4;spacingRight=4;overflow=hidden;rotatable=0;points=[[0,0.5],[1,0.5]];portConstraint=eastwest;whiteSpace=wrap;html=1;fontSize=10;" parent="lDSgatOu9usaqV24lOmU-59" vertex="1">
          <mxGeometry y="52" width="90" height="26" as="geometry" />
        </mxCell>
        <mxCell id="lDSgatOu9usaqV24lOmU-62" value="• address" style="text;strokeColor=none;fillColor=none;align=left;verticalAlign=top;spacingLeft=4;spacingRight=4;overflow=hidden;rotatable=0;points=[[0,0.5],[1,0.5]];portConstraint=eastwest;whiteSpace=wrap;html=1;fontSize=10;" parent="lDSgatOu9usaqV24lOmU-59" vertex="1">
          <mxGeometry y="78" width="90" height="26" as="geometry" />
        </mxCell>
        <mxCell id="lDSgatOu9usaqV24lOmU-63" value="• city" style="text;strokeColor=none;fillColor=none;align=left;verticalAlign=top;spacingLeft=4;spacingRight=4;overflow=hidden;rotatable=0;points=[[0,0.5],[1,0.5]];portConstraint=eastwest;whiteSpace=wrap;html=1;fontSize=10;" parent="lDSgatOu9usaqV24lOmU-59" vertex="1">
          <mxGeometry y="104" width="90" height="26" as="geometry" />
        </mxCell>
        <mxCell id="lDSgatOu9usaqV24lOmU-64" value="• Zip_code" style="text;strokeColor=none;fillColor=none;align=left;verticalAlign=top;spacingLeft=4;spacingRight=4;overflow=hidden;rotatable=0;points=[[0,0.5],[1,0.5]];portConstraint=eastwest;whiteSpace=wrap;html=1;fontSize=10;" parent="lDSgatOu9usaqV24lOmU-59" vertex="1">
          <mxGeometry y="130" width="90" height="26" as="geometry" />
        </mxCell>
        <mxCell id="lDSgatOu9usaqV24lOmU-67" value="• country/region" style="text;strokeColor=none;fillColor=none;align=left;verticalAlign=top;spacingLeft=4;spacingRight=4;overflow=hidden;rotatable=0;points=[[0,0.5],[1,0.5]];portConstraint=eastwest;whiteSpace=wrap;html=1;fontSize=10;" parent="lDSgatOu9usaqV24lOmU-59" vertex="1">
          <mxGeometry y="156" width="90" height="26" as="geometry" />
        </mxCell>
        <mxCell id="lDSgatOu9usaqV24lOmU-69" value="• phone#" style="text;strokeColor=none;fillColor=none;align=left;verticalAlign=top;spacingLeft=4;spacingRight=4;overflow=hidden;rotatable=0;points=[[0,0.5],[1,0.5]];portConstraint=eastwest;whiteSpace=wrap;html=1;fontSize=10;" parent="lDSgatOu9usaqV24lOmU-59" vertex="1">
          <mxGeometry y="182" width="90" height="26" as="geometry" />
        </mxCell>
        <mxCell id="lDSgatOu9usaqV24lOmU-70" value="" style="endArrow=none;dashed=1;html=1;rounded=0;" parent="lDSgatOu9usaqV24lOmU-75" edge="1">
          <mxGeometry width="50" height="50" relative="1" as="geometry">
            <mxPoint x="13" y="149" as="sourcePoint" />
            <mxPoint x="53" y="149" as="targetPoint" />
          </mxGeometry>
        </mxCell>
        <mxCell id="lDSgatOu9usaqV24lOmU-74" value="" style="endArrow=none;dashed=1;html=1;rounded=0;" parent="lDSgatOu9usaqV24lOmU-75" edge="1">
          <mxGeometry width="50" height="50" relative="1" as="geometry">
            <mxPoint x="13" y="123" as="sourcePoint" />
            <mxPoint x="27" y="123" as="targetPoint" />
          </mxGeometry>
        </mxCell>
        <mxCell id="lDSgatOu9usaqV24lOmU-93" value="" style="rounded=0;whiteSpace=wrap;html=1;fillColor=none;" parent="lDSgatOu9usaqV24lOmU-138" vertex="1">
          <mxGeometry x="2" y="2" width="86" height="22" as="geometry" />
        </mxCell>
        <mxCell id="lDSgatOu9usaqV24lOmU-147" value="" style="group" parent="1" vertex="1" connectable="0">
          <mxGeometry x="210" y="560" width="70" height="130" as="geometry" />
        </mxCell>
        <mxCell id="lDSgatOu9usaqV24lOmU-127" value="REVIEW" style="swimlane;fontStyle=0;childLayout=stackLayout;horizontal=1;startSize=26;fillColor=none;horizontalStack=0;resizeParent=1;resizeParentMax=0;resizeLast=0;collapsible=1;marginBottom=0;whiteSpace=wrap;html=1;" parent="lDSgatOu9usaqV24lOmU-147" vertex="1">
          <mxGeometry width="70" height="130" as="geometry" />
        </mxCell>
        <mxCell id="lDSgatOu9usaqV24lOmU-128" value="• date" style="text;strokeColor=none;fillColor=none;align=left;verticalAlign=top;spacingLeft=4;spacingRight=4;overflow=hidden;rotatable=0;points=[[0,0.5],[1,0.5]];portConstraint=eastwest;whiteSpace=wrap;html=1;fontSize=10;" parent="lDSgatOu9usaqV24lOmU-127" vertex="1">
          <mxGeometry y="26" width="70" height="26" as="geometry" />
        </mxCell>
        <mxCell id="aqiV3KClvXBAnvepseEA-2" value="• time" style="text;strokeColor=none;fillColor=none;align=left;verticalAlign=top;spacingLeft=4;spacingRight=4;overflow=hidden;rotatable=0;points=[[0,0.5],[1,0.5]];portConstraint=eastwest;whiteSpace=wrap;html=1;fontSize=10;" parent="lDSgatOu9usaqV24lOmU-127" vertex="1">
          <mxGeometry y="52" width="70" height="26" as="geometry" />
        </mxCell>
        <mxCell id="lDSgatOu9usaqV24lOmU-129" value="• review_text" style="text;strokeColor=none;fillColor=none;align=left;verticalAlign=top;spacingLeft=4;spacingRight=4;overflow=hidden;rotatable=0;points=[[0,0.5],[1,0.5]];portConstraint=eastwest;whiteSpace=wrap;html=1;fontSize=10;" parent="lDSgatOu9usaqV24lOmU-127" vertex="1">
          <mxGeometry y="78" width="70" height="26" as="geometry" />
        </mxCell>
        <mxCell id="lDSgatOu9usaqV24lOmU-130" value="• stars" style="text;strokeColor=none;fillColor=none;align=left;verticalAlign=top;spacingLeft=4;spacingRight=4;overflow=hidden;rotatable=0;points=[[0,0.5],[1,0.5]];portConstraint=eastwest;whiteSpace=wrap;html=1;fontSize=10;" parent="lDSgatOu9usaqV24lOmU-127" vertex="1">
          <mxGeometry y="104" width="70" height="26" as="geometry" />
        </mxCell>
        <mxCell id="lDSgatOu9usaqV24lOmU-144" value="" style="rounded=0;whiteSpace=wrap;html=1;fillColor=none;" parent="lDSgatOu9usaqV24lOmU-147" vertex="1">
          <mxGeometry x="2" y="2" width="66" height="22" as="geometry" />
        </mxCell>
        <mxCell id="lDSgatOu9usaqV24lOmU-145" value="" style="rounded=0;whiteSpace=wrap;html=1;fillColor=none;" parent="lDSgatOu9usaqV24lOmU-147" vertex="1">
          <mxGeometry x="2" y="28" width="66" height="100" as="geometry" />
        </mxCell>
        <mxCell id="lDSgatOu9usaqV24lOmU-146" value="" style="endArrow=none;dashed=1;html=1;rounded=0;" parent="lDSgatOu9usaqV24lOmU-147" edge="1">
          <mxGeometry width="50" height="50" relative="1" as="geometry">
            <mxPoint x="12.5" y="43" as="sourcePoint" />
            <mxPoint x="32" y="43" as="targetPoint" />
          </mxGeometry>
        </mxCell>
        <mxCell id="lDSgatOu9usaqV24lOmU-148" value="" style="triangle;whiteSpace=wrap;html=1;direction=south;" parent="1" vertex="1">
          <mxGeometry x="225" y="709" width="40" height="20" as="geometry" />
        </mxCell>
        <mxCell id="lDSgatOu9usaqV24lOmU-149" value="" style="endArrow=none;html=1;rounded=0;edgeStyle=orthogonalEdgeStyle;entryX=1;entryY=0.5;entryDx=0;entryDy=0;exitX=0.999;exitY=0.128;exitDx=0;exitDy=0;exitPerimeter=0;" parent="1" source="lDSgatOu9usaqV24lOmU-1" target="lDSgatOu9usaqV24lOmU-148" edge="1">
          <mxGeometry width="50" height="50" relative="1" as="geometry">
            <mxPoint x="230" y="780" as="sourcePoint" />
            <mxPoint x="215" y="504.9" as="targetPoint" />
            <Array as="points">
              <mxPoint x="245" y="741" />
            </Array>
          </mxGeometry>
        </mxCell>
        <mxCell id="lDSgatOu9usaqV24lOmU-150" value="" style="endArrow=none;html=1;rounded=0;edgeStyle=orthogonalEdgeStyle;exitX=0;exitY=0.75;exitDx=0;exitDy=0;entryX=0.357;entryY=1.005;entryDx=0;entryDy=0;entryPerimeter=0;" parent="1" source="lDSgatOu9usaqV24lOmU-148" edge="1">
          <mxGeometry width="50" height="50" relative="1" as="geometry">
            <mxPoint x="228" y="911" as="sourcePoint" />
            <mxPoint x="234.99" y="690.13" as="targetPoint" />
          </mxGeometry>
        </mxCell>
        <mxCell id="lDSgatOu9usaqV24lOmU-151" value="" style="endArrow=none;html=1;rounded=0;edgeStyle=orthogonalEdgeStyle;exitX=0;exitY=0.5;exitDx=0;exitDy=0;entryX=0.5;entryY=0.999;entryDx=0;entryDy=0;entryPerimeter=0;" parent="1" source="lDSgatOu9usaqV24lOmU-148" edge="1">
          <mxGeometry width="50" height="50" relative="1" as="geometry">
            <mxPoint x="259" y="852" as="sourcePoint" />
            <mxPoint x="245" y="689.9739999999999" as="targetPoint" />
          </mxGeometry>
        </mxCell>
        <mxCell id="lDSgatOu9usaqV24lOmU-152" value="" style="endArrow=none;html=1;rounded=0;edgeStyle=orthogonalEdgeStyle;exitX=0;exitY=0.25;exitDx=0;exitDy=0;entryX=0.637;entryY=1.005;entryDx=0;entryDy=0;entryPerimeter=0;" parent="1" source="lDSgatOu9usaqV24lOmU-148" edge="1">
          <mxGeometry width="50" height="50" relative="1" as="geometry">
            <mxPoint x="272" y="861" as="sourcePoint" />
            <mxPoint x="254.59000000000003" y="690.13" as="targetPoint" />
          </mxGeometry>
        </mxCell>
        <mxCell id="lDSgatOu9usaqV24lOmU-154" value="&lt;font style=&quot;font-size: 7px;&quot;&gt;1:1&lt;/font&gt;" style="text;html=1;strokeColor=none;fillColor=none;align=center;verticalAlign=middle;whiteSpace=wrap;rounded=0;" parent="1" vertex="1">
          <mxGeometry x="151" y="720" width="20" height="10" as="geometry" />
        </mxCell>
        <mxCell id="lDSgatOu9usaqV24lOmU-155" value="&lt;font style=&quot;font-size: 7px;&quot;&gt;0:N&lt;/font&gt;" style="text;html=1;strokeColor=none;fillColor=none;align=center;verticalAlign=middle;whiteSpace=wrap;rounded=0;" parent="1" vertex="1">
          <mxGeometry x="215" y="689" width="20" height="10" as="geometry" />
        </mxCell>
        <mxCell id="lDSgatOu9usaqV24lOmU-156" value="&lt;font style=&quot;font-size: 7px;&quot;&gt;1:1&lt;/font&gt;" style="text;html=1;strokeColor=none;fillColor=none;align=center;verticalAlign=middle;whiteSpace=wrap;rounded=0;" parent="1" vertex="1">
          <mxGeometry x="187" y="523" width="20" height="10" as="geometry" />
        </mxCell>
        <mxCell id="lDSgatOu9usaqV24lOmU-157" value="&lt;font style=&quot;font-size: 7px;&quot;&gt;0:N&lt;/font&gt;" style="text;html=1;strokeColor=none;fillColor=none;align=center;verticalAlign=middle;whiteSpace=wrap;rounded=0;" parent="1" vertex="1">
          <mxGeometry x="243" y="510.5" width="20" height="10" as="geometry" />
        </mxCell>
        <mxCell id="lDSgatOu9usaqV24lOmU-164" value="&lt;font style=&quot;font-size: 10px;&quot;&gt;Used in&lt;/font&gt;" style="rounded=1;whiteSpace=wrap;html=1;arcSize=50;" parent="1" vertex="1">
          <mxGeometry x="510.97" y="474" width="50" height="10" as="geometry" />
        </mxCell>
        <mxCell id="lDSgatOu9usaqV24lOmU-165" value="" style="endArrow=none;html=1;rounded=0;edgeStyle=orthogonalEdgeStyle;entryX=0;entryY=0.5;entryDx=0;entryDy=0;exitX=1;exitY=0.549;exitDx=0;exitDy=0;exitPerimeter=0;" parent="1" source="lDSgatOu9usaqV24lOmU-8" target="lDSgatOu9usaqV24lOmU-164" edge="1">
          <mxGeometry width="50" height="50" relative="1" as="geometry">
            <mxPoint x="490" y="480" as="sourcePoint" />
            <mxPoint x="672" y="470" as="targetPoint" />
            <Array as="points">
              <mxPoint x="470" y="480" />
              <mxPoint x="625" y="480" />
            </Array>
          </mxGeometry>
        </mxCell>
        <mxCell id="lDSgatOu9usaqV24lOmU-166" value="" style="endArrow=none;html=1;rounded=0;edgeStyle=orthogonalEdgeStyle;exitX=1;exitY=0.5;exitDx=0;exitDy=0;entryX=0.867;entryY=0.001;entryDx=0;entryDy=0;entryPerimeter=0;" parent="1" source="lDSgatOu9usaqV24lOmU-164" target="lDSgatOu9usaqV24lOmU-159" edge="1">
          <mxGeometry width="50" height="50" relative="1" as="geometry">
            <mxPoint x="700" y="416.86" as="sourcePoint" />
            <mxPoint x="400" y="860" as="targetPoint" />
            <Array as="points">
              <mxPoint x="600" y="479" />
              <mxPoint x="600" y="820" />
              <mxPoint x="339" y="820" />
            </Array>
          </mxGeometry>
        </mxCell>
        <mxCell id="lDSgatOu9usaqV24lOmU-168" value="" style="group" parent="1" vertex="1" connectable="0">
          <mxGeometry x="260.97" y="833" width="90" height="52" as="geometry" />
        </mxCell>
        <mxCell id="lDSgatOu9usaqV24lOmU-159" value="DISCOUNT" style="swimlane;fontStyle=0;childLayout=stackLayout;horizontal=1;startSize=26;fillColor=none;horizontalStack=0;resizeParent=1;resizeParentMax=0;resizeLast=0;collapsible=1;marginBottom=0;whiteSpace=wrap;html=1;" parent="lDSgatOu9usaqV24lOmU-168" vertex="1">
          <mxGeometry width="90" height="52" as="geometry" />
        </mxCell>
        <mxCell id="lDSgatOu9usaqV24lOmU-160" value="• discount_ID" style="text;strokeColor=none;fillColor=none;align=left;verticalAlign=top;spacingLeft=4;spacingRight=4;overflow=hidden;rotatable=0;points=[[0,0.5],[1,0.5]];portConstraint=eastwest;whiteSpace=wrap;html=1;fontSize=10;" parent="lDSgatOu9usaqV24lOmU-159" vertex="1">
          <mxGeometry y="26" width="90" height="26" as="geometry" />
        </mxCell>
        <mxCell id="lDSgatOu9usaqV24lOmU-167" value="" style="endArrow=none;html=1;rounded=0;fontStyle=1" parent="lDSgatOu9usaqV24lOmU-168" edge="1">
          <mxGeometry width="50" height="50" relative="1" as="geometry">
            <mxPoint x="13" y="44.75999999999999" as="sourcePoint" />
            <mxPoint x="65" y="45" as="targetPoint" />
          </mxGeometry>
        </mxCell>
        <mxCell id="lDSgatOu9usaqV24lOmU-169" value="D" style="shape=or;whiteSpace=wrap;html=1;direction=north;" parent="1" vertex="1">
          <mxGeometry x="285.97" y="907" width="50" height="30" as="geometry" />
        </mxCell>
        <mxCell id="lDSgatOu9usaqV24lOmU-170" value="" style="endArrow=classicThin;html=1;rounded=0;edgeStyle=orthogonalEdgeStyle;exitX=0.993;exitY=0.4;exitDx=0;exitDy=0;exitPerimeter=0;endFill=1;entryX=0.491;entryY=0.999;entryDx=0;entryDy=0;entryPerimeter=0;" parent="1" source="lDSgatOu9usaqV24lOmU-169" target="lDSgatOu9usaqV24lOmU-160" edge="1">
          <mxGeometry width="50" height="50" relative="1" as="geometry">
            <mxPoint x="268.97" y="1065" as="sourcePoint" />
            <mxPoint x="283.97" y="903" as="targetPoint" />
          </mxGeometry>
        </mxCell>
        <mxCell id="lDSgatOu9usaqV24lOmU-171" value="" style="endArrow=classicThin;html=1;rounded=0;edgeStyle=orthogonalEdgeStyle;exitX=0.996;exitY=0.6;exitDx=0;exitDy=0;exitPerimeter=0;endFill=1;entryX=0.602;entryY=0.999;entryDx=0;entryDy=0;entryPerimeter=0;" parent="1" source="lDSgatOu9usaqV24lOmU-169" target="lDSgatOu9usaqV24lOmU-160" edge="1">
          <mxGeometry width="50" height="50" relative="1" as="geometry">
            <mxPoint x="288.97" y="1075" as="sourcePoint" />
            <mxPoint x="330.97" y="903" as="targetPoint" />
          </mxGeometry>
        </mxCell>
        <mxCell id="lDSgatOu9usaqV24lOmU-172" value="VALUE BASED" style="swimlane;fontStyle=0;childLayout=stackLayout;horizontal=1;startSize=26;fillColor=none;horizontalStack=0;resizeParent=1;resizeParentMax=0;resizeLast=0;collapsible=1;marginBottom=0;whiteSpace=wrap;html=1;" parent="1" vertex="1">
          <mxGeometry x="170" y="889.5" width="110" height="52" as="geometry" />
        </mxCell>
        <mxCell id="lDSgatOu9usaqV24lOmU-173" value="• value" style="text;strokeColor=none;fillColor=none;align=left;verticalAlign=top;spacingLeft=4;spacingRight=4;overflow=hidden;rotatable=0;points=[[0,0.5],[1,0.5]];portConstraint=eastwest;whiteSpace=wrap;html=1;fontSize=10;" parent="lDSgatOu9usaqV24lOmU-172" vertex="1">
          <mxGeometry y="26" width="110" height="26" as="geometry" />
        </mxCell>
        <mxCell id="lDSgatOu9usaqV24lOmU-177" value="PERCENT BASED" style="swimlane;fontStyle=0;childLayout=stackLayout;horizontal=1;startSize=26;fillColor=none;horizontalStack=0;resizeParent=1;resizeParentMax=0;resizeLast=0;collapsible=1;marginBottom=0;whiteSpace=wrap;html=1;" parent="1" vertex="1">
          <mxGeometry x="220" y="953" width="130" height="52" as="geometry" />
        </mxCell>
        <mxCell id="lDSgatOu9usaqV24lOmU-178" value="• percent" style="text;strokeColor=none;fillColor=none;align=left;verticalAlign=top;spacingLeft=4;spacingRight=4;overflow=hidden;rotatable=0;points=[[0,0.5],[1,0.5]];portConstraint=eastwest;whiteSpace=wrap;html=1;fontSize=10;" parent="lDSgatOu9usaqV24lOmU-177" vertex="1">
          <mxGeometry y="26" width="130" height="26" as="geometry" />
        </mxCell>
        <mxCell id="lDSgatOu9usaqV24lOmU-179" value="" style="endArrow=none;html=1;rounded=0;edgeStyle=orthogonalEdgeStyle;exitX=0.818;exitY=0.999;exitDx=0;exitDy=0;exitPerimeter=0;entryX=0;entryY=0.25;entryDx=0;entryDy=0;entryPerimeter=0;" parent="1" source="lDSgatOu9usaqV24lOmU-173" target="lDSgatOu9usaqV24lOmU-169" edge="1">
          <mxGeometry width="50" height="50" relative="1" as="geometry">
            <mxPoint x="360" y="930" as="sourcePoint" />
            <mxPoint x="290" y="940" as="targetPoint" />
            <Array as="points">
              <mxPoint x="260" y="950" />
              <mxPoint x="298" y="950" />
            </Array>
          </mxGeometry>
        </mxCell>
        <mxCell id="lDSgatOu9usaqV24lOmU-180" value="" style="endArrow=none;html=1;rounded=0;edgeStyle=orthogonalEdgeStyle;entryX=0;entryY=0.5;entryDx=0;entryDy=0;entryPerimeter=0;exitX=0.699;exitY=-0.002;exitDx=0;exitDy=0;exitPerimeter=0;" parent="1" source="lDSgatOu9usaqV24lOmU-177" target="lDSgatOu9usaqV24lOmU-169" edge="1">
          <mxGeometry width="50" height="50" relative="1" as="geometry">
            <mxPoint x="320" y="950" as="sourcePoint" />
            <mxPoint x="333.97" y="973" as="targetPoint" />
            <Array as="points" />
          </mxGeometry>
        </mxCell>
        <mxCell id="lDSgatOu9usaqV24lOmU-181" value="GIFT CARD PAY" style="swimlane;fontStyle=0;childLayout=stackLayout;horizontal=1;startSize=26;fillColor=none;horizontalStack=0;resizeParent=1;resizeParentMax=0;resizeLast=0;collapsible=1;marginBottom=0;whiteSpace=wrap;html=1;" parent="1" vertex="1">
          <mxGeometry x="230" y="1012" width="120" height="52" as="geometry" />
        </mxCell>
        <mxCell id="lDSgatOu9usaqV24lOmU-182" value="• value" style="text;strokeColor=none;fillColor=none;align=left;verticalAlign=top;spacingLeft=4;spacingRight=4;overflow=hidden;rotatable=0;points=[[0,0.5],[1,0.5]];portConstraint=eastwest;whiteSpace=wrap;html=1;fontSize=10;" parent="lDSgatOu9usaqV24lOmU-181" vertex="1">
          <mxGeometry y="26" width="120" height="26" as="geometry" />
        </mxCell>
        <mxCell id="lDSgatOu9usaqV24lOmU-186" value="" style="endArrow=none;html=1;rounded=0;edgeStyle=orthogonalEdgeStyle;entryX=0;entryY=0.75;entryDx=0;entryDy=0;entryPerimeter=0;exitX=1.004;exitY=0.167;exitDx=0;exitDy=0;exitPerimeter=0;" parent="1" source="lDSgatOu9usaqV24lOmU-181" target="lDSgatOu9usaqV24lOmU-169" edge="1">
          <mxGeometry width="50" height="50" relative="1" as="geometry">
            <mxPoint x="260" y="1023" as="sourcePoint" />
            <mxPoint x="283.97" y="993" as="targetPoint" />
            <Array as="points">
              <mxPoint x="360" y="1021" />
              <mxPoint x="360" y="943" />
              <mxPoint x="324" y="943" />
            </Array>
          </mxGeometry>
        </mxCell>
        <mxCell id="lDSgatOu9usaqV24lOmU-187" value="" style="endArrow=none;html=1;rounded=0;edgeStyle=orthogonalEdgeStyle;exitX=1;exitY=0.5;exitDx=0;exitDy=0;entryX=0.003;entryY=0.078;entryDx=0;entryDy=0;entryPerimeter=0;" parent="1" source="lDSgatOu9usaqV24lOmU-203" target="lDSgatOu9usaqV24lOmU-188" edge="1">
          <mxGeometry width="50" height="50" relative="1" as="geometry">
            <mxPoint x="459.97" y="1024" as="sourcePoint" />
            <mxPoint x="476" y="994" as="targetPoint" />
            <Array as="points" />
          </mxGeometry>
        </mxCell>
        <mxCell id="lDSgatOu9usaqV24lOmU-196" value="" style="group" parent="1" vertex="1" connectable="0">
          <mxGeometry x="459.96999999999997" y="833" width="100" height="156" as="geometry" />
        </mxCell>
        <mxCell id="lDSgatOu9usaqV24lOmU-188" value="PRODUCT" style="swimlane;fontStyle=0;childLayout=stackLayout;horizontal=1;startSize=26;fillColor=none;horizontalStack=0;resizeParent=1;resizeParentMax=0;resizeLast=0;collapsible=1;marginBottom=0;whiteSpace=wrap;html=1;" parent="lDSgatOu9usaqV24lOmU-196" vertex="1">
          <mxGeometry width="100" height="130" as="geometry" />
        </mxCell>
        <mxCell id="lDSgatOu9usaqV24lOmU-189" value="• product_ID" style="text;strokeColor=none;fillColor=none;align=left;verticalAlign=top;spacingLeft=4;spacingRight=4;overflow=hidden;rotatable=0;points=[[0,0.5],[1,0.5]];portConstraint=eastwest;whiteSpace=wrap;html=1;fontSize=10;" parent="lDSgatOu9usaqV24lOmU-188" vertex="1">
          <mxGeometry y="26" width="100" height="26" as="geometry" />
        </mxCell>
        <mxCell id="lDSgatOu9usaqV24lOmU-190" value="• name" style="text;strokeColor=none;fillColor=none;align=left;verticalAlign=top;spacingLeft=4;spacingRight=4;overflow=hidden;rotatable=0;points=[[0,0.5],[1,0.5]];portConstraint=eastwest;whiteSpace=wrap;html=1;fontSize=10;" parent="lDSgatOu9usaqV24lOmU-188" vertex="1">
          <mxGeometry y="52" width="100" height="26" as="geometry" />
        </mxCell>
        <mxCell id="lDSgatOu9usaqV24lOmU-191" value="• price" style="text;strokeColor=none;fillColor=none;align=left;verticalAlign=top;spacingLeft=4;spacingRight=4;overflow=hidden;rotatable=0;points=[[0,0.5],[1,0.5]];portConstraint=eastwest;whiteSpace=wrap;html=1;fontSize=10;" parent="lDSgatOu9usaqV24lOmU-188" vertex="1">
          <mxGeometry y="78" width="100" height="26" as="geometry" />
        </mxCell>
        <mxCell id="lDSgatOu9usaqV24lOmU-195" value="• discount_amount" style="text;strokeColor=none;fillColor=none;align=left;verticalAlign=top;spacingLeft=4;spacingRight=4;overflow=hidden;rotatable=0;points=[[0,0.5],[1,0.5]];portConstraint=eastwest;whiteSpace=wrap;html=1;fontSize=10;" parent="lDSgatOu9usaqV24lOmU-188" vertex="1">
          <mxGeometry y="104" width="100" height="26" as="geometry" />
        </mxCell>
        <mxCell id="lDSgatOu9usaqV24lOmU-193" value="" style="endArrow=none;html=1;rounded=0;" parent="lDSgatOu9usaqV24lOmU-196" edge="1">
          <mxGeometry width="50" height="50" relative="1" as="geometry">
            <mxPoint x="12" y="45" as="sourcePoint" />
            <mxPoint x="61" y="45" as="targetPoint" />
          </mxGeometry>
        </mxCell>
        <mxCell id="lDSgatOu9usaqV24lOmU-198" value="&lt;span style=&quot;font-size: 10px;&quot;&gt;Related to&lt;/span&gt;" style="rounded=1;whiteSpace=wrap;html=1;arcSize=50;verticalAlign=middle;spacingTop=-1;" parent="1" vertex="1">
          <mxGeometry x="564" y="883.5" width="60" height="10" as="geometry" />
        </mxCell>
        <mxCell id="lDSgatOu9usaqV24lOmU-199" value="" style="endArrow=none;html=1;rounded=0;edgeStyle=orthogonalEdgeStyle;entryX=0.5;entryY=1;entryDx=0;entryDy=0;exitX=1.003;exitY=0.689;exitDx=0;exitDy=0;exitPerimeter=0;" parent="1" source="lDSgatOu9usaqV24lOmU-190" target="lDSgatOu9usaqV24lOmU-198" edge="1">
          <mxGeometry width="50" height="50" relative="1" as="geometry">
            <mxPoint x="580" y="914" as="sourcePoint" />
            <mxPoint x="630" y="904" as="targetPoint" />
            <Array as="points">
              <mxPoint x="594" y="903" />
            </Array>
          </mxGeometry>
        </mxCell>
        <mxCell id="lDSgatOu9usaqV24lOmU-200" value="" style="endArrow=none;html=1;rounded=0;edgeStyle=orthogonalEdgeStyle;entryX=0.5;entryY=0;entryDx=0;entryDy=0;exitX=1.001;exitY=0.539;exitDx=0;exitDy=0;exitPerimeter=0;" parent="1" source="lDSgatOu9usaqV24lOmU-189" target="lDSgatOu9usaqV24lOmU-198" edge="1">
          <mxGeometry width="50" height="50" relative="1" as="geometry">
            <mxPoint x="570" y="873" as="sourcePoint" />
            <mxPoint x="640" y="864" as="targetPoint" />
            <Array as="points">
              <mxPoint x="594" y="873" />
            </Array>
          </mxGeometry>
        </mxCell>
        <mxCell id="lDSgatOu9usaqV24lOmU-201" value="&lt;font style=&quot;font-size: 7px;&quot;&gt;0:N&lt;br&gt;&lt;/font&gt;" style="text;html=1;strokeColor=none;fillColor=none;align=center;verticalAlign=middle;whiteSpace=wrap;rounded=0;" parent="1" vertex="1">
          <mxGeometry x="557.97" y="862" width="20" height="10" as="geometry" />
        </mxCell>
        <mxCell id="lDSgatOu9usaqV24lOmU-202" value="&lt;font style=&quot;font-size: 7px;&quot;&gt;0:N&lt;/font&gt;" style="text;html=1;strokeColor=none;fillColor=none;align=center;verticalAlign=middle;whiteSpace=wrap;rounded=0;" parent="1" vertex="1">
          <mxGeometry x="558.97" y="902" width="20" height="10" as="geometry" />
        </mxCell>
        <mxCell id="lDSgatOu9usaqV24lOmU-204" value="" style="endArrow=none;html=1;rounded=0;edgeStyle=orthogonalEdgeStyle;entryX=0;entryY=0.5;entryDx=0;entryDy=0;exitX=1;exitY=0.19;exitDx=0;exitDy=0;exitPerimeter=0;" parent="1" source="lDSgatOu9usaqV24lOmU-159" target="lDSgatOu9usaqV24lOmU-203" edge="1">
          <mxGeometry width="50" height="50" relative="1" as="geometry">
            <mxPoint x="360" y="843" as="sourcePoint" />
            <mxPoint x="519.97" y="1023" as="targetPoint" />
            <Array as="points">
              <mxPoint x="370" y="843" />
            </Array>
          </mxGeometry>
        </mxCell>
        <mxCell id="lDSgatOu9usaqV24lOmU-203" value="&lt;span style=&quot;font-size: 10px;&quot;&gt;Restricted to&lt;br&gt;&lt;/span&gt;" style="rounded=1;whiteSpace=wrap;html=1;arcSize=50;" parent="1" vertex="1">
          <mxGeometry x="370" y="838" width="69" height="10" as="geometry" />
        </mxCell>
        <mxCell id="lDSgatOu9usaqV24lOmU-206" value="&lt;font style=&quot;font-size: 7px;&quot;&gt;0:N&lt;/font&gt;" style="text;html=1;strokeColor=none;fillColor=none;align=center;verticalAlign=middle;whiteSpace=wrap;rounded=0;" parent="1" vertex="1">
          <mxGeometry x="441" y="831" width="20" height="10" as="geometry" />
        </mxCell>
        <mxCell id="lDSgatOu9usaqV24lOmU-207" value="&lt;font style=&quot;font-size: 7px;&quot;&gt;0:N&lt;/font&gt;" style="text;html=1;strokeColor=none;fillColor=none;align=center;verticalAlign=middle;whiteSpace=wrap;rounded=0;" parent="1" vertex="1">
          <mxGeometry x="350.97" y="831" width="20" height="10" as="geometry" />
        </mxCell>
        <mxCell id="lDSgatOu9usaqV24lOmU-209" style="edgeStyle=orthogonalEdgeStyle;rounded=0;orthogonalLoop=1;jettySize=auto;html=1;exitX=1;exitY=0.5;exitDx=0;exitDy=0;exitPerimeter=0;endArrow=classicThin;endFill=1;entryX=0;entryY=0.5;entryDx=0;entryDy=0;" parent="1" source="lDSgatOu9usaqV24lOmU-208" target="lDSgatOu9usaqV24lOmU-190" edge="1">
          <mxGeometry relative="1" as="geometry">
            <mxPoint x="450" y="893" as="targetPoint" />
            <Array as="points" />
          </mxGeometry>
        </mxCell>
        <mxCell id="lDSgatOu9usaqV24lOmU-208" value="D" style="shape=or;whiteSpace=wrap;html=1;direction=east;" parent="1" vertex="1">
          <mxGeometry x="410.0000000000002" y="873" width="30" height="50" as="geometry" />
        </mxCell>
        <mxCell id="lDSgatOu9usaqV24lOmU-211" value="&lt;font style=&quot;font-size: 7px;&quot;&gt;0:1&lt;br&gt;&lt;/font&gt;" style="text;html=1;strokeColor=none;fillColor=none;align=center;verticalAlign=middle;whiteSpace=wrap;rounded=0;" parent="1" vertex="1">
          <mxGeometry x="435" y="468" width="20" height="10" as="geometry" />
        </mxCell>
        <mxCell id="lDSgatOu9usaqV24lOmU-212" value="&lt;font style=&quot;font-size: 7px;&quot;&gt;0:1&lt;br&gt;&lt;/font&gt;" style="text;html=1;strokeColor=none;fillColor=none;align=center;verticalAlign=middle;whiteSpace=wrap;rounded=0;" parent="1" vertex="1">
          <mxGeometry x="319.97" y="820" width="20" height="10" as="geometry" />
        </mxCell>
        <mxCell id="lDSgatOu9usaqV24lOmU-213" value="" style="endArrow=none;html=1;rounded=0;edgeStyle=orthogonalEdgeStyle;entryX=0.995;entryY=0.071;entryDx=0;entryDy=0;exitX=0;exitY=0.5;exitDx=0;exitDy=0;entryPerimeter=0;" parent="1" source="lDSgatOu9usaqV24lOmU-214" target="lDSgatOu9usaqV24lOmU-7" edge="1">
          <mxGeometry width="50" height="50" relative="1" as="geometry">
            <mxPoint x="575" y="700" as="sourcePoint" />
            <mxPoint x="595" y="530" as="targetPoint" />
            <Array as="points">
              <mxPoint x="435" y="449" />
            </Array>
          </mxGeometry>
        </mxCell>
        <mxCell id="lDSgatOu9usaqV24lOmU-219" value="" style="endArrow=none;html=1;rounded=0;edgeStyle=orthogonalEdgeStyle;entryX=1;entryY=0.5;entryDx=0;entryDy=0;exitX=1;exitY=0.078;exitDx=0;exitDy=0;exitPerimeter=0;" parent="1" source="lDSgatOu9usaqV24lOmU-188" target="lDSgatOu9usaqV24lOmU-214" edge="1">
          <mxGeometry width="50" height="50" relative="1" as="geometry">
            <mxPoint x="570" y="880" as="sourcePoint" />
            <mxPoint x="640" y="840" as="targetPoint" />
            <Array as="points">
              <mxPoint x="610" y="843" />
              <mxPoint x="610" y="450" />
            </Array>
          </mxGeometry>
        </mxCell>
        <mxCell id="lDSgatOu9usaqV24lOmU-220" value="" style="group" parent="1" vertex="1" connectable="0">
          <mxGeometry x="495.97" y="438" width="65" height="23" as="geometry" />
        </mxCell>
        <mxCell id="lDSgatOu9usaqV24lOmU-214" value="&lt;span style=&quot;font-size: 10px;&quot;&gt;Includes&lt;br&gt;&lt;br&gt;&lt;/span&gt;" style="rounded=1;whiteSpace=wrap;html=1;arcSize=50;" parent="lDSgatOu9usaqV24lOmU-220" vertex="1">
          <mxGeometry width="65" height="23" as="geometry" />
        </mxCell>
        <mxCell id="lDSgatOu9usaqV24lOmU-216" value="• quantity" style="text;html=1;strokeColor=none;fillColor=none;align=left;verticalAlign=middle;whiteSpace=wrap;rounded=0;fontSize=8;" parent="lDSgatOu9usaqV24lOmU-220" vertex="1">
          <mxGeometry x="6.5" y="13" width="52" height="8" as="geometry" />
        </mxCell>
        <mxCell id="lDSgatOu9usaqV24lOmU-215" value="" style="endArrow=none;html=1;rounded=0;entryX=1;entryY=0.5;entryDx=0;entryDy=0;exitX=0;exitY=0.5;exitDx=0;exitDy=0;" parent="lDSgatOu9usaqV24lOmU-220" source="lDSgatOu9usaqV24lOmU-214" target="lDSgatOu9usaqV24lOmU-214" edge="1">
          <mxGeometry width="50" height="50" relative="1" as="geometry">
            <mxPoint x="387.8333333333333" y="278" as="sourcePoint" />
            <mxPoint x="441.99999999999994" y="228" as="targetPoint" />
          </mxGeometry>
        </mxCell>
        <mxCell id="lDSgatOu9usaqV24lOmU-221" value="&lt;font style=&quot;font-size: 7px;&quot;&gt;1:N&lt;/font&gt;" style="text;html=1;strokeColor=none;fillColor=none;align=center;verticalAlign=middle;whiteSpace=wrap;rounded=0;" parent="1" vertex="1">
          <mxGeometry x="508.47" y="1103" width="20" height="10" as="geometry" />
        </mxCell>
        <mxCell id="lDSgatOu9usaqV24lOmU-222" value="&lt;font style=&quot;font-size: 7px;&quot;&gt;1:N&lt;/font&gt;" style="text;html=1;strokeColor=none;fillColor=none;align=center;verticalAlign=middle;whiteSpace=wrap;rounded=0;" parent="1" vertex="1">
          <mxGeometry x="435.97" y="437" width="20" height="10" as="geometry" />
        </mxCell>
        <mxCell id="lDSgatOu9usaqV24lOmU-223" value="SEED" style="swimlane;fontStyle=0;childLayout=stackLayout;horizontal=1;startSize=26;fillColor=none;horizontalStack=0;resizeParent=1;resizeParentMax=0;resizeLast=0;collapsible=1;marginBottom=0;whiteSpace=wrap;html=1;" parent="1" vertex="1">
          <mxGeometry x="500.03" y="973" width="80" height="130" as="geometry" />
        </mxCell>
        <mxCell id="lDSgatOu9usaqV24lOmU-224" value="• seed_type" style="text;strokeColor=none;fillColor=none;align=left;verticalAlign=top;spacingLeft=4;spacingRight=4;overflow=hidden;rotatable=0;points=[[0,0.5],[1,0.5]];portConstraint=eastwest;whiteSpace=wrap;html=1;fontSize=10;" parent="lDSgatOu9usaqV24lOmU-223" vertex="1">
          <mxGeometry y="26" width="80" height="26" as="geometry" />
        </mxCell>
        <mxCell id="lDSgatOu9usaqV24lOmU-226" value="• season" style="text;strokeColor=none;fillColor=none;align=left;verticalAlign=top;spacingLeft=4;spacingRight=4;overflow=hidden;rotatable=0;points=[[0,0.5],[1,0.5]];portConstraint=eastwest;whiteSpace=wrap;html=1;fontSize=10;" parent="lDSgatOu9usaqV24lOmU-223" vertex="1">
          <mxGeometry y="52" width="80" height="26" as="geometry" />
        </mxCell>
        <mxCell id="lDSgatOu9usaqV24lOmU-227" value="• size" style="text;strokeColor=none;fillColor=none;align=left;verticalAlign=top;spacingLeft=4;spacingRight=4;overflow=hidden;rotatable=0;points=[[0,0.5],[1,0.5]];portConstraint=eastwest;whiteSpace=wrap;html=1;fontSize=10;" parent="lDSgatOu9usaqV24lOmU-223" vertex="1">
          <mxGeometry y="78" width="80" height="26" as="geometry" />
        </mxCell>
        <mxCell id="lDSgatOu9usaqV24lOmU-229" value="• sun_amount" style="text;strokeColor=none;fillColor=none;align=left;verticalAlign=top;spacingLeft=4;spacingRight=4;overflow=hidden;rotatable=0;points=[[0,0.5],[1,0.5]];portConstraint=eastwest;whiteSpace=wrap;html=1;fontSize=10;" parent="lDSgatOu9usaqV24lOmU-223" vertex="1">
          <mxGeometry y="104" width="80" height="26" as="geometry" />
        </mxCell>
        <mxCell id="lDSgatOu9usaqV24lOmU-230" value="GARDEN" style="swimlane;fontStyle=0;childLayout=stackLayout;horizontal=1;startSize=26;fillColor=none;horizontalStack=0;resizeParent=1;resizeParentMax=0;resizeLast=0;collapsible=1;marginBottom=0;whiteSpace=wrap;html=1;" parent="1" vertex="1">
          <mxGeometry x="400.03" y="1025" width="80" height="78" as="geometry" />
        </mxCell>
        <mxCell id="lDSgatOu9usaqV24lOmU-231" value="• small_count" style="text;strokeColor=none;fillColor=none;align=left;verticalAlign=top;spacingLeft=4;spacingRight=4;overflow=hidden;rotatable=0;points=[[0,0.5],[1,0.5]];portConstraint=eastwest;whiteSpace=wrap;html=1;fontSize=10;" parent="lDSgatOu9usaqV24lOmU-230" vertex="1">
          <mxGeometry y="26" width="80" height="26" as="geometry" />
        </mxCell>
        <mxCell id="lDSgatOu9usaqV24lOmU-232" value="• large_count" style="text;strokeColor=none;fillColor=none;align=left;verticalAlign=top;spacingLeft=4;spacingRight=4;overflow=hidden;rotatable=0;points=[[0,0.5],[1,0.5]];portConstraint=eastwest;whiteSpace=wrap;html=1;fontSize=10;" parent="lDSgatOu9usaqV24lOmU-230" vertex="1">
          <mxGeometry y="52" width="80" height="26" as="geometry" />
        </mxCell>
        <mxCell id="lDSgatOu9usaqV24lOmU-235" value="" style="group;verticalAlign=middle;" parent="1" vertex="1" connectable="0">
          <mxGeometry x="405.03" y="975" width="70" height="23" as="geometry" />
        </mxCell>
        <mxCell id="lDSgatOu9usaqV24lOmU-236" value="&lt;span style=&quot;font-size: 10px;&quot;&gt;INCLUDES&lt;br&gt;&lt;br&gt;&lt;/span&gt;" style="rounded=1;whiteSpace=wrap;html=1;arcSize=50;" parent="lDSgatOu9usaqV24lOmU-235" vertex="1">
          <mxGeometry width="70" height="23" as="geometry" />
        </mxCell>
        <mxCell id="lDSgatOu9usaqV24lOmU-237" value="• quantity" style="text;html=1;strokeColor=none;fillColor=none;align=left;verticalAlign=middle;whiteSpace=wrap;rounded=0;fontSize=8;" parent="lDSgatOu9usaqV24lOmU-235" vertex="1">
          <mxGeometry x="6.5" y="13" width="52" height="8" as="geometry" />
        </mxCell>
        <mxCell id="lDSgatOu9usaqV24lOmU-238" value="" style="endArrow=none;html=1;rounded=0;entryX=1;entryY=0.5;entryDx=0;entryDy=0;exitX=0;exitY=0.5;exitDx=0;exitDy=0;" parent="lDSgatOu9usaqV24lOmU-235" source="lDSgatOu9usaqV24lOmU-236" target="lDSgatOu9usaqV24lOmU-236" edge="1">
          <mxGeometry width="50" height="50" relative="1" as="geometry">
            <mxPoint x="387.8333333333333" y="278" as="sourcePoint" />
            <mxPoint x="441.99999999999994" y="228" as="targetPoint" />
          </mxGeometry>
        </mxCell>
        <mxCell id="lDSgatOu9usaqV24lOmU-240" value="" style="endArrow=none;html=1;rounded=0;edgeStyle=orthogonalEdgeStyle;exitX=1;exitY=0.5;exitDx=0;exitDy=0;entryX=-0.003;entryY=0.106;entryDx=0;entryDy=0;entryPerimeter=0;" parent="1" source="lDSgatOu9usaqV24lOmU-236" target="lDSgatOu9usaqV24lOmU-223" edge="1">
          <mxGeometry width="50" height="50" relative="1" as="geometry">
            <mxPoint x="450" y="1496.5" as="sourcePoint" />
            <mxPoint x="484.03" y="1188.5" as="targetPoint" />
          </mxGeometry>
        </mxCell>
        <mxCell id="lDSgatOu9usaqV24lOmU-241" value="" style="endArrow=none;html=1;rounded=0;edgeStyle=orthogonalEdgeStyle;entryX=0.5;entryY=1;entryDx=0;entryDy=0;exitX=0.5;exitY=0;exitDx=0;exitDy=0;" parent="1" source="lDSgatOu9usaqV24lOmU-230" target="lDSgatOu9usaqV24lOmU-236" edge="1">
          <mxGeometry width="50" height="50" relative="1" as="geometry">
            <mxPoint x="380" y="1358.5" as="sourcePoint" />
            <mxPoint x="420" y="1438.5" as="targetPoint" />
          </mxGeometry>
        </mxCell>
        <mxCell id="lDSgatOu9usaqV24lOmU-242" value="&lt;font style=&quot;font-size: 7px;&quot;&gt;0:N&lt;/font&gt;" style="text;html=1;strokeColor=none;fillColor=none;align=center;verticalAlign=middle;whiteSpace=wrap;rounded=0;" parent="1" vertex="1">
          <mxGeometry x="439.03" y="1012" width="20" height="10" as="geometry" />
        </mxCell>
        <mxCell id="lDSgatOu9usaqV24lOmU-243" value="&lt;font style=&quot;font-size: 7px;&quot;&gt;4:8&lt;/font&gt;" style="text;html=1;strokeColor=none;fillColor=none;align=center;verticalAlign=middle;whiteSpace=wrap;rounded=0;" parent="1" vertex="1">
          <mxGeometry x="481.03" y="987" width="20" height="10" as="geometry" />
        </mxCell>
        <mxCell id="lDSgatOu9usaqV24lOmU-245" value="" style="endArrow=none;html=1;rounded=0;edgeStyle=orthogonalEdgeStyle;exitX=0;exitY=0.5;exitDx=0;exitDy=0;exitPerimeter=0;entryX=0.117;entryY=1.005;entryDx=0;entryDy=0;entryPerimeter=0;" parent="1" source="lDSgatOu9usaqV24lOmU-208" target="lDSgatOu9usaqV24lOmU-229" edge="1">
          <mxGeometry width="50" height="50" relative="1" as="geometry">
            <mxPoint x="324" y="1503.5" as="sourcePoint" />
            <mxPoint x="454.03" y="1308.5" as="targetPoint" />
            <Array as="points">
              <mxPoint x="380" y="898" />
              <mxPoint x="380" y="1123" />
              <mxPoint x="510" y="1123" />
              <mxPoint x="510" y="1103" />
            </Array>
          </mxGeometry>
        </mxCell>
        <mxCell id="lDSgatOu9usaqV24lOmU-246" value="" style="endArrow=none;html=1;rounded=0;edgeStyle=orthogonalEdgeStyle;exitX=0;exitY=0.75;exitDx=0;exitDy=0;exitPerimeter=0;entryX=0.344;entryY=0.995;entryDx=0;entryDy=0;entryPerimeter=0;" parent="1" source="lDSgatOu9usaqV24lOmU-208" target="lDSgatOu9usaqV24lOmU-232" edge="1">
          <mxGeometry width="50" height="50" relative="1" as="geometry">
            <mxPoint x="335" y="1498.5" as="sourcePoint" />
            <mxPoint x="415" y="1308.5" as="targetPoint" />
            <Array as="points">
              <mxPoint x="390" y="911" />
              <mxPoint x="390" y="1113" />
              <mxPoint x="428" y="1113" />
            </Array>
          </mxGeometry>
        </mxCell>
        <mxCell id="lDSgatOu9usaqV24lOmU-247" value="GIFT CARD PROD" style="swimlane;fontStyle=0;childLayout=stackLayout;horizontal=1;startSize=26;fillColor=none;horizontalStack=0;resizeParent=1;resizeParentMax=0;resizeLast=0;collapsible=1;marginBottom=0;whiteSpace=wrap;html=1;" parent="1" vertex="1">
          <mxGeometry x="230" y="1073" width="130" height="52" as="geometry" />
        </mxCell>
        <mxCell id="lDSgatOu9usaqV24lOmU-248" value="• gift_card_type" style="text;strokeColor=none;fillColor=none;align=left;verticalAlign=top;spacingLeft=4;spacingRight=4;overflow=hidden;rotatable=0;points=[[0,0.5],[1,0.5]];portConstraint=eastwest;whiteSpace=wrap;html=1;fontSize=10;" parent="lDSgatOu9usaqV24lOmU-247" vertex="1">
          <mxGeometry y="26" width="130" height="26" as="geometry" />
        </mxCell>
        <mxCell id="lDSgatOu9usaqV24lOmU-252" value="" style="endArrow=none;html=1;rounded=0;edgeStyle=orthogonalEdgeStyle;exitX=0;exitY=0.25;exitDx=0;exitDy=0;exitPerimeter=0;entryX=1;entryY=0.195;entryDx=0;entryDy=0;entryPerimeter=0;" parent="1" source="lDSgatOu9usaqV24lOmU-208" target="lDSgatOu9usaqV24lOmU-247" edge="1">
          <mxGeometry width="50" height="50" relative="1" as="geometry">
            <mxPoint x="326" y="1548.5" as="sourcePoint" />
            <mxPoint x="370" y="1083" as="targetPoint" />
            <Array as="points">
              <mxPoint x="370" y="885" />
              <mxPoint x="370" y="1083" />
            </Array>
          </mxGeometry>
        </mxCell>
        <mxCell id="lDSgatOu9usaqV24lOmU-254" value="ORDER W/ USER" style="swimlane;fontStyle=0;childLayout=stackLayout;horizontal=1;startSize=26;fillColor=none;horizontalStack=0;resizeParent=1;resizeParentMax=0;resizeLast=0;collapsible=1;marginBottom=0;whiteSpace=wrap;html=1;" parent="1" vertex="1">
          <mxGeometry x="205" y="460" width="120" height="52" as="geometry" />
        </mxCell>
        <mxCell id="lDSgatOu9usaqV24lOmU-258" value="&amp;nbsp;&amp;nbsp;" style="text;strokeColor=none;fillColor=none;align=left;verticalAlign=top;spacingLeft=4;spacingRight=4;overflow=hidden;rotatable=0;points=[[0,0.5],[1,0.5]];portConstraint=eastwest;whiteSpace=wrap;html=1;fontSize=10;" parent="lDSgatOu9usaqV24lOmU-254" vertex="1">
          <mxGeometry y="26" width="120" height="26" as="geometry" />
        </mxCell>
        <mxCell id="T0dX9sEk2MvKOJWJ_iqa-18" value="" style="group" parent="1" vertex="1" connectable="0">
          <mxGeometry x="300" y="640" width="130" height="130" as="geometry" />
        </mxCell>
        <mxCell id="T0dX9sEk2MvKOJWJ_iqa-2" value="COMMUNITY POST" style="swimlane;fontStyle=0;childLayout=stackLayout;horizontal=1;startSize=26;fillColor=none;horizontalStack=0;resizeParent=1;resizeParentMax=0;resizeLast=0;collapsible=1;marginBottom=0;whiteSpace=wrap;html=1;" parent="T0dX9sEk2MvKOJWJ_iqa-18" vertex="1">
          <mxGeometry width="130" height="130" as="geometry" />
        </mxCell>
        <mxCell id="T0dX9sEk2MvKOJWJ_iqa-3" value="• post_ID" style="text;strokeColor=none;fillColor=none;align=left;verticalAlign=top;spacingLeft=4;spacingRight=4;overflow=hidden;rotatable=0;points=[[0,0.5],[1,0.5]];portConstraint=eastwest;whiteSpace=wrap;html=1;fontSize=10;" parent="T0dX9sEk2MvKOJWJ_iqa-2" vertex="1">
          <mxGeometry y="26" width="130" height="26" as="geometry" />
        </mxCell>
        <mxCell id="T0dX9sEk2MvKOJWJ_iqa-7" value="• category" style="text;strokeColor=none;fillColor=none;align=left;verticalAlign=top;spacingLeft=4;spacingRight=4;overflow=hidden;rotatable=0;points=[[0,0.5],[1,0.5]];portConstraint=eastwest;whiteSpace=wrap;html=1;fontSize=10;" parent="T0dX9sEk2MvKOJWJ_iqa-2" vertex="1">
          <mxGeometry y="52" width="130" height="26" as="geometry" />
        </mxCell>
        <mxCell id="T0dX9sEk2MvKOJWJ_iqa-4" value="• post_type" style="text;strokeColor=none;fillColor=none;align=left;verticalAlign=top;spacingLeft=4;spacingRight=4;overflow=hidden;rotatable=0;points=[[0,0.5],[1,0.5]];portConstraint=eastwest;whiteSpace=wrap;html=1;fontSize=10;" parent="T0dX9sEk2MvKOJWJ_iqa-2" vertex="1">
          <mxGeometry y="78" width="130" height="26" as="geometry" />
        </mxCell>
        <mxCell id="T0dX9sEk2MvKOJWJ_iqa-5" value="• post_content" style="text;strokeColor=none;fillColor=none;align=left;verticalAlign=top;spacingLeft=4;spacingRight=4;overflow=hidden;rotatable=0;points=[[0,0.5],[1,0.5]];portConstraint=eastwest;whiteSpace=wrap;html=1;fontSize=10;" parent="T0dX9sEk2MvKOJWJ_iqa-2" vertex="1">
          <mxGeometry y="104" width="130" height="26" as="geometry" />
        </mxCell>
        <mxCell id="T0dX9sEk2MvKOJWJ_iqa-15" value="" style="endArrow=none;html=1;rounded=0;" parent="T0dX9sEk2MvKOJWJ_iqa-18" edge="1">
          <mxGeometry width="50" height="50" relative="1" as="geometry">
            <mxPoint x="13" y="45" as="sourcePoint" />
            <mxPoint x="46" y="45" as="targetPoint" />
          </mxGeometry>
        </mxCell>
        <mxCell id="T0dX9sEk2MvKOJWJ_iqa-19" value="" style="group" parent="1" vertex="1" connectable="0">
          <mxGeometry x="500.03" y="710" width="90" height="104" as="geometry" />
        </mxCell>
        <mxCell id="T0dX9sEk2MvKOJWJ_iqa-8" value="COMMENT" style="swimlane;fontStyle=0;childLayout=stackLayout;horizontal=1;startSize=26;fillColor=none;horizontalStack=0;resizeParent=1;resizeParentMax=0;resizeLast=0;collapsible=1;marginBottom=0;whiteSpace=wrap;html=1;" parent="T0dX9sEk2MvKOJWJ_iqa-19" vertex="1">
          <mxGeometry width="90" height="104" as="geometry" />
        </mxCell>
        <mxCell id="T0dX9sEk2MvKOJWJ_iqa-9" value="• date" style="text;strokeColor=none;fillColor=none;align=left;verticalAlign=top;spacingLeft=4;spacingRight=4;overflow=hidden;rotatable=0;points=[[0,0.5],[1,0.5]];portConstraint=eastwest;whiteSpace=wrap;html=1;fontSize=10;" parent="T0dX9sEk2MvKOJWJ_iqa-8" vertex="1">
          <mxGeometry y="26" width="90" height="26" as="geometry" />
        </mxCell>
        <mxCell id="T0dX9sEk2MvKOJWJ_iqa-10" value="• time" style="text;strokeColor=none;fillColor=none;align=left;verticalAlign=top;spacingLeft=4;spacingRight=4;overflow=hidden;rotatable=0;points=[[0,0.5],[1,0.5]];portConstraint=eastwest;whiteSpace=wrap;html=1;fontSize=10;" parent="T0dX9sEk2MvKOJWJ_iqa-8" vertex="1">
          <mxGeometry y="52" width="90" height="26" as="geometry" />
        </mxCell>
        <mxCell id="T0dX9sEk2MvKOJWJ_iqa-11" value="• comment_text" style="text;strokeColor=none;fillColor=none;align=left;verticalAlign=top;spacingLeft=4;spacingRight=4;overflow=hidden;rotatable=0;points=[[0,0.5],[1,0.5]];portConstraint=eastwest;whiteSpace=wrap;html=1;fontSize=10;" parent="T0dX9sEk2MvKOJWJ_iqa-8" vertex="1">
          <mxGeometry y="78" width="90" height="26" as="geometry" />
        </mxCell>
        <mxCell id="T0dX9sEk2MvKOJWJ_iqa-13" value="" style="rounded=0;whiteSpace=wrap;html=1;fillColor=none;" parent="T0dX9sEk2MvKOJWJ_iqa-19" vertex="1">
          <mxGeometry x="2" y="2" width="86" height="22" as="geometry" />
        </mxCell>
        <mxCell id="T0dX9sEk2MvKOJWJ_iqa-14" value="" style="rounded=0;whiteSpace=wrap;html=1;fillColor=none;" parent="T0dX9sEk2MvKOJWJ_iqa-19" vertex="1">
          <mxGeometry x="2" y="28" width="86" height="74" as="geometry" />
        </mxCell>
        <mxCell id="T0dX9sEk2MvKOJWJ_iqa-16" value="" style="endArrow=none;dashed=1;html=1;rounded=0;" parent="T0dX9sEk2MvKOJWJ_iqa-19" edge="1">
          <mxGeometry width="50" height="50" relative="1" as="geometry">
            <mxPoint x="13" y="69" as="sourcePoint" />
            <mxPoint x="32" y="69" as="targetPoint" />
          </mxGeometry>
        </mxCell>
        <mxCell id="T0dX9sEk2MvKOJWJ_iqa-17" value="" style="endArrow=none;dashed=1;html=1;rounded=0;" parent="T0dX9sEk2MvKOJWJ_iqa-19" edge="1">
          <mxGeometry width="50" height="50" relative="1" as="geometry">
            <mxPoint x="13" y="43" as="sourcePoint" />
            <mxPoint x="32" y="43" as="targetPoint" />
          </mxGeometry>
        </mxCell>
        <mxCell id="T0dX9sEk2MvKOJWJ_iqa-20" value="" style="triangle;whiteSpace=wrap;html=1;direction=west;" parent="1" vertex="1">
          <mxGeometry x="460" y="744" width="20" height="40" as="geometry" />
        </mxCell>
        <mxCell id="T0dX9sEk2MvKOJWJ_iqa-21" value="" style="endArrow=none;html=1;rounded=0;exitX=1;exitY=0.5;exitDx=0;exitDy=0;edgeStyle=orthogonalEdgeStyle;entryX=1;entryY=0.765;entryDx=0;entryDy=0;entryPerimeter=0;" parent="1" source="T0dX9sEk2MvKOJWJ_iqa-20" target="T0dX9sEk2MvKOJWJ_iqa-5" edge="1">
          <mxGeometry width="50" height="50" relative="1" as="geometry">
            <mxPoint x="359.5" y="653" as="sourcePoint" />
            <mxPoint x="440" y="780" as="targetPoint" />
            <Array as="points">
              <mxPoint x="440" y="764" />
            </Array>
          </mxGeometry>
        </mxCell>
        <mxCell id="T0dX9sEk2MvKOJWJ_iqa-22" value="" style="endArrow=none;html=1;rounded=0;edgeStyle=orthogonalEdgeStyle;entryX=0;entryY=0.25;entryDx=0;entryDy=0;exitX=0.002;exitY=0.459;exitDx=0;exitDy=0;exitPerimeter=0;" parent="1" source="T0dX9sEk2MvKOJWJ_iqa-10" target="T0dX9sEk2MvKOJWJ_iqa-20" edge="1">
          <mxGeometry width="50" height="50" relative="1" as="geometry">
            <mxPoint x="440" y="820" as="sourcePoint" />
            <mxPoint x="331" y="694" as="targetPoint" />
            <Array as="points" />
          </mxGeometry>
        </mxCell>
        <mxCell id="T0dX9sEk2MvKOJWJ_iqa-23" value="" style="endArrow=none;html=1;rounded=0;edgeStyle=orthogonalEdgeStyle;entryX=0;entryY=0.5;entryDx=0;entryDy=0;exitX=-0.001;exitY=0.075;exitDx=0;exitDy=0;exitPerimeter=0;" parent="1" source="T0dX9sEk2MvKOJWJ_iqa-10" target="T0dX9sEk2MvKOJWJ_iqa-20" edge="1">
          <mxGeometry width="50" height="50" relative="1" as="geometry">
            <mxPoint x="440" y="810" as="sourcePoint" />
            <mxPoint x="381" y="704" as="targetPoint" />
            <Array as="points" />
          </mxGeometry>
        </mxCell>
        <mxCell id="T0dX9sEk2MvKOJWJ_iqa-24" value="" style="endArrow=none;html=1;rounded=0;edgeStyle=orthogonalEdgeStyle;entryX=0;entryY=0.75;entryDx=0;entryDy=0;exitX=-0.001;exitY=0.679;exitDx=0;exitDy=0;exitPerimeter=0;" parent="1" source="T0dX9sEk2MvKOJWJ_iqa-9" target="T0dX9sEk2MvKOJWJ_iqa-20" edge="1">
          <mxGeometry width="50" height="50" relative="1" as="geometry">
            <mxPoint x="439" y="800" as="sourcePoint" />
            <mxPoint x="451" y="704" as="targetPoint" />
            <Array as="points">
              <mxPoint x="490" y="754" />
            </Array>
          </mxGeometry>
        </mxCell>
        <mxCell id="T0dX9sEk2MvKOJWJ_iqa-25" value="&lt;font style=&quot;font-size: 7px;&quot;&gt;1:1&lt;/font&gt;" style="text;html=1;strokeColor=none;fillColor=none;align=center;verticalAlign=middle;whiteSpace=wrap;rounded=0;" parent="1" vertex="1">
          <mxGeometry x="426.97" y="753" width="20" height="10" as="geometry" />
        </mxCell>
        <mxCell id="T0dX9sEk2MvKOJWJ_iqa-26" value="&lt;font style=&quot;font-size: 7px;&quot;&gt;0:N&lt;/font&gt;" style="text;html=1;strokeColor=none;fillColor=none;align=center;verticalAlign=middle;whiteSpace=wrap;rounded=0;" parent="1" vertex="1">
          <mxGeometry x="480.03" y="742" width="20" height="10" as="geometry" />
        </mxCell>
        <mxCell id="T0dX9sEk2MvKOJWJ_iqa-27" value="&lt;font style=&quot;font-size: 10px;&quot;&gt;Written by&lt;/font&gt;" style="rounded=1;whiteSpace=wrap;html=1;arcSize=50;" parent="1" vertex="1">
          <mxGeometry x="300" y="786" width="70" height="10" as="geometry" />
        </mxCell>
        <mxCell id="T0dX9sEk2MvKOJWJ_iqa-28" value="" style="endArrow=none;html=1;rounded=0;edgeStyle=orthogonalEdgeStyle;entryX=0;entryY=0.5;entryDx=0;entryDy=0;exitX=1.002;exitY=0.312;exitDx=0;exitDy=0;exitPerimeter=0;" parent="1" source="lDSgatOu9usaqV24lOmU-3" target="T0dX9sEk2MvKOJWJ_iqa-27" edge="1">
          <mxGeometry width="50" height="50" relative="1" as="geometry">
            <mxPoint x="240" y="840" as="sourcePoint" />
            <mxPoint x="232.97" y="854" as="targetPoint" />
          </mxGeometry>
        </mxCell>
        <mxCell id="T0dX9sEk2MvKOJWJ_iqa-29" value="" style="endArrow=none;html=1;rounded=0;edgeStyle=orthogonalEdgeStyle;entryX=1;entryY=0.5;entryDx=0;entryDy=0;exitX=0.002;exitY=0.108;exitDx=0;exitDy=0;exitPerimeter=0;" parent="1" source="T0dX9sEk2MvKOJWJ_iqa-11" target="T0dX9sEk2MvKOJWJ_iqa-27" edge="1">
          <mxGeometry width="50" height="50" relative="1" as="geometry">
            <mxPoint x="430" y="850" as="sourcePoint" />
            <mxPoint x="390" y="856" as="targetPoint" />
            <Array as="points" />
          </mxGeometry>
        </mxCell>
        <mxCell id="T0dX9sEk2MvKOJWJ_iqa-30" value="&lt;font style=&quot;font-size: 7px;&quot;&gt;1:1&lt;/font&gt;" style="text;html=1;strokeColor=none;fillColor=none;align=center;verticalAlign=middle;whiteSpace=wrap;rounded=0;" parent="1" vertex="1">
          <mxGeometry x="213" y="780" width="20" height="10" as="geometry" />
        </mxCell>
        <mxCell id="T0dX9sEk2MvKOJWJ_iqa-31" value="&lt;font style=&quot;font-size: 7px;&quot;&gt;0:N&lt;/font&gt;" style="text;html=1;strokeColor=none;fillColor=none;align=center;verticalAlign=middle;whiteSpace=wrap;rounded=0;" parent="1" vertex="1">
          <mxGeometry x="481.03000000000003" y="779" width="20" height="10" as="geometry" />
        </mxCell>
        <mxCell id="aqiV3KClvXBAnvepseEA-3" value="" style="endArrow=none;dashed=1;html=1;rounded=0;" parent="1" edge="1">
          <mxGeometry width="50" height="50" relative="1" as="geometry">
            <mxPoint x="222.5" y="629" as="sourcePoint" />
            <mxPoint x="242" y="629" as="targetPoint" />
          </mxGeometry>
        </mxCell>
      </root>
    </mxGraphModel>
  </diagram>
</mxfile>
